# xmcd CD database file
#
# Track frame offsets:
#	150
#	16264
#	38011
#	50070
#	68050
#	85402
#	107056
#	127024
#	150560
#	172452
#	186329
#	216083
#	229690
#
# Disc length: 3325 seconds
#
# Revision: 0
# Processed by: cddbd v1.5.2PL0 Copyright (c) Steve Scherf et al.
# Submitted via: CDex 1.70beta2
#
DISCID=b60cfb0d
DTITLE=Acid Drinkers - Amazing Atomic Activity
DYEAR=2008
DGENRE=Thrash Metal
TTITLE0=Acid Drinkers - Amazing Atomic Activity
TTITLE1=Acid Drinkers - You Better Shoot Me
TTITLE2=Acid Drinkers - Satisfaction
TTITLE3=Acid Drinkers - Cops Broke My Beer
TTITLE4=Acid Drinkers - Wake Up! Here Come The Acids
TTITLE5=Acid Drinkers - My Pick
TTITLE6=Acid Drinkers - Sheﾒs Gonna Be A Porno Star
TTITLE7=Acid Drinkers - Justify Me (I Was So Hungry)
TTITLE8=Acid Drinkers - Home Submarine
TTITLE9=Acid Drinkers - House Full Of Reptiles
TTITLE10=Acid Drinkers - What A Day
TTITLE11=Acid Drinkers - Cigarettes
TTITLE12=Acid Drinkers - The Last Lap
EXTD=YEAR: 2008
EXTT0=
EXTT1=
EXTT2=
EXTT3=
EXTT4=
EXTT5=
EXTT6=
EXTT7=
EXTT8=
EXTT9=
EXTT10=
EXTT11=
EXTT12=
PLAYORDER=
